# xmcd
#
# Track frame offsets:
#	150
#	18352
#	37000
#	53950
#	70475
#	91902
#	109325
#	128780
#	150985
#	169615
#	188310
#	207585
#	223425
#	241375
#	263175
#	283315
#
# Disc length: 4021 seconds
#
# Revision: 1
# Processed by: cddbd v1.5.2PL0 Copyright (c) Steve Scherf et al.
# Submitted via: EZCDAudioConverter 8.3.2.1
#
DISCID=ee0fb310
DTITLE=千昌夫 - 千昌夫 全曲集
DYEAR=1900
DGENRE=East Asia
TTITLE0=北国の春
TTITLE1=望郷酒場
TTITLE2=味噌汁の詩
TTITLE3=夕焼け雲
TTITLE4=あんた
TTITLE5=星影のワルツ
TTITLE6=人生ふたり旅
TTITLE7=帰ってきたヨ
TTITLE8=津軽平野
TTITLE9=おやじ先生
TTITLE10=きんぴら
TTITLE11=ふるさとの祭り
TTITLE12=親友
TTITLE13=屋台
TTITLE14=中年ブルース
TTITLE15=あした天気になーれ
EXTD=
EXTT0=
EXTT1=
EXTT2=
EXTT3=
EXTT4=
EXTT5=
EXTT6=
EXTT7=
EXTT8=
EXTT9=
EXTT10=
EXTT11=
EXTT12=
EXTT13=
EXTT14=
EXTT15=
PLAYORDER=
